<svg width="22" height="26" viewBox="0 0 22 26" fill="none" xmlns="http://www.w3.org/2000/svg">
<path d="M14.7533 0.150162C14.6341 0.0245973 14.4706 -0.0507812 14.3012 -0.0507812H4.15865C2.28708 -0.0507812 0.742218 1.48793 0.742218 3.3593V22.539C0.742218 24.4106 2.28708 25.9493 4.15865 25.9493H17.9248C19.7963 25.9493 21.3412 24.4106 21.3412 22.539V7.30954C21.3412 7.14628 21.2658 6.98938 21.1591 6.86996L14.7533 0.150162ZM14.9354 2.16614L19.2248 6.66902H16.4364C15.6075 6.66902 14.9354 6.00331 14.9354 5.17434V2.16614ZM17.9248 24.6932H4.15865C2.98433 24.6932 1.99826 23.7198 1.99826 22.539V3.3593C1.99826 2.18499 2.97799 1.20526 4.15865 1.20526H13.6794V5.17434C13.6794 6.70036 14.9104 7.92506 16.4364 7.92506H20.0852V22.539C20.0852 23.7198 19.1054 24.6932 17.9248 24.6932Z" fill="white"/>
<path d="M16.2102 20.3599H5.87302C5.52766 20.3599 5.245 20.6423 5.245 20.9879C5.245 21.3332 5.52766 21.6159 5.87302 21.6159H16.2165C16.5619 21.6159 16.8446 21.3332 16.8446 20.9879C16.8446 20.6423 16.5619 20.3599 16.2102 20.3599Z" fill="white"/>
<path d="M10.5832 18.1054C10.7026 18.2309 10.8659 18.3063 11.0416 18.3063C11.2176 18.3063 11.3809 18.2309 11.5001 18.1054L15.1803 14.1551C15.419 13.9038 15.4001 13.5019 15.149 13.2696C14.8977 13.031 14.4958 13.0497 14.2635 13.301L11.6697 16.0831V9.22519C11.6697 8.87964 11.387 8.59717 11.0416 8.59717C10.6963 8.59717 10.4136 8.87964 10.4136 9.22519V16.0831L7.82616 13.301C7.58753 13.0499 7.19179 13.031 6.94066 13.2696C6.68953 13.5083 6.67068 13.904 6.90932 14.1551L10.5832 18.1054Z" fill="white"/>
</svg>
