<svg width="26" height="26" viewBox="0 0 26 26" fill="none" xmlns="http://www.w3.org/2000/svg">
<g clip-path="url(#clip0)">
<path d="M16.7533 0.150162C16.6341 0.0245973 16.4706 -0.0507812 16.3012 -0.0507812H6.15862C4.28705 -0.0507812 2.74219 1.48793 2.74219 3.3593V22.539C2.74219 24.4106 4.28705 25.9493 6.15862 25.9493H19.9247C21.7963 25.9493 23.3412 24.4106 23.3412 22.539V7.30954C23.3412 7.14628 23.2658 6.98938 23.1591 6.86996L16.7533 0.150162ZM16.9354 2.16614L21.2248 6.66902H18.4364C17.6074 6.66902 16.9354 6.00331 16.9354 5.17434V2.16614ZM19.9247 24.6932H6.15862C4.9843 24.6932 3.99823 23.7198 3.99823 22.539V3.3593C3.99823 2.18499 4.97796 1.20526 6.15862 1.20526H15.6793V5.17434C15.6793 6.70036 16.9104 7.92506 18.4364 7.92506H22.0851V22.539C22.0851 23.7198 21.1054 24.6932 19.9247 24.6932Z" fill="#1C4685"/>
<path d="M18.2102 20.3599H7.87302C7.52766 20.3599 7.245 20.6423 7.245 20.9879C7.245 21.3332 7.52766 21.6159 7.87302 21.6159H18.2165C18.5619 21.6159 18.8446 21.3332 18.8446 20.9879C18.8446 20.6423 18.5619 20.3599 18.2102 20.3599Z" fill="#1C4685"/>
<path d="M12.5832 18.1054C12.7026 18.2309 12.8659 18.3063 13.0416 18.3063C13.2176 18.3063 13.3809 18.2309 13.5001 18.1054L17.1803 14.1551C17.419 13.9038 17.4001 13.5019 17.149 13.2696C16.8977 13.031 16.4958 13.0497 16.2635 13.301L13.6697 16.0831V9.22519C13.6697 8.87964 13.387 8.59717 13.0416 8.59717C12.6963 8.59717 12.4136 8.87964 12.4136 9.22519V16.0831L9.82616 13.301C9.58753 13.0499 9.19179 13.031 8.94066 13.2696C8.68953 13.5083 8.67068 13.904 8.90932 14.1551L12.5832 18.1054Z" fill="#1C4685"/>
</g>
<defs>
<clipPath id="clip0">
<rect width="26" height="26" fill="white"/>
</clipPath>
</defs>
</svg>
