<svg width="89" height="54" viewBox="0 0 89 54" fill="none" xmlns="http://www.w3.org/2000/svg">
<g clip-path="url(#clip0)">
<path d="M0 20.2325C2.76317 17.3174 5.52634 14.4023 8.5914 11.1675C18.5022 19.7424 28.3361 28.2498 38.7752 37.2824C28.4451 38.2879 19.5127 37.012 11.7906 30.679C7.84365 27.4428 3.92881 24.1672 0 20.9085C0 20.6831 0 20.4578 0 20.2325Z" fill="#A7BCD4" fill-opacity="0.3"/>
<path d="M85.3564 53.5508C71.5461 55.366 60.425 51.6735 50.6008 42.5818C39.5971 32.4 27.9364 22.9393 16.5665 13.1603C15.6399 12.3646 14.7454 11.5351 13.5923 10.5014C16.8055 7.00613 19.8817 3.65868 23.2459 0C43.8725 17.7836 64.4167 35.4968 85.3564 53.5508Z" fill="#A7BCD4" fill-opacity="0.3"/>
<path d="M52.2335 19.9397C53.9749 17.9794 55.5235 16.2388 57.3167 14.2222C67.8145 23.29 78.181 32.2452 89.0002 41.589C83.397 42.2551 78.4214 42.0073 74.3416 38.7035C66.8781 32.662 59.6788 26.291 52.2335 19.9397Z" fill="#A7BCD4" fill-opacity="0.3"/>
</g>
<defs>
<clipPath id="clip0">
<rect width="89" height="54" fill="white"/>
</clipPath>
</defs>
</svg>
